Motion_pl08
version=1
nRows=10
nColumns=43
inDegrees=yes
endheader
time	pelvis_tilt	pelvis_list	pelvis_rotation	pelvis_tx	pelvis_ty	pelvis_tz	hip_flexion_r	hip_adduction_r	hip_rotation_r	knee_angle_r	ankle_angle_r	subtalar_angle_r	mtp_angle_r	hip_flexion_l	hip_adduction_l	hip_rotation_l	knee_angle_l	ankle_angle_l	subtalar_angle_l	mtp_angle_l	lumbar_extension	lumbar_bending	lumbar_rotation	neck_flexion	neck_lateral_bending	neck_rotation	arm_flex_r	arm_add_r	arm_rot_r	elbow_flex_r	pro_sup_r	wrist_flex_r	wrist_dev_r	hand_finger_flex_r	arm_flex_l	arm_add_l	arm_rot_l	elbow_flex_l	pro_sup_l	wrist_flex_l	wrist_dev_l	hand_finger_flex_l
      1.99250000	     -3.20122909	     15.22368986	     94.26535632	     -0.02840227	      0.50245875	      0.44332291	     73.49252039	     -6.62231398	      1.82123979	   -129.45894236	     12.35301592	     -6.93316909	     24.89542988	     68.47310601	      2.35807286	     -6.11919088	   -126.10156704	     21.83487075	    -15.22378888	     25.38751688	    -66.84493465	     -1.81448912	     -5.34057161	      9.02676855	      3.97144292	     -3.58430822	     81.67561559	    -33.23828531	     38.37216969	     64.37574944	     97.97074763	    -30.21780032	      1.24037152	     43.99972432	     74.82038903	    -28.59127198	     25.98311399	     72.91297801	    129.65939932	    -13.56546877	     15.87705657	     90.00021046
      1.99500000	     -3.24653757	     15.04463961	     94.24667545	     -0.02862513	      0.49909428	      0.44256290	     74.04630660	     -6.77788539	      1.75211370	   -129.95687163	     12.46618913	     -7.13531966	     24.90868232	     68.92501729	      2.24732879	     -6.32788620	   -126.54502321	     22.19616731	    -15.09591576	     25.56638667	    -66.94078165	     -1.81599866	     -5.35936246	      9.25826070	      3.87598140	     -3.58949248	     83.34253299	    -32.67270674	     38.89053420	     64.05940972	     97.96144596	    -30.28248183	      1.04464505	     43.80234038	     76.56792297	    -28.23013846	     26.96646420	     72.96093386	    129.66112349	    -13.61868710	     15.85906870	     90.00021046
      1.99750000	     -3.27953567	     14.85908444	     94.23105927	     -0.02886715	      0.49583132	      0.44179527	     74.61293360	     -6.95335806	      1.70171674	   -130.43313886	     12.57573755	     -7.30787327	     24.92406648	     69.35552072	      2.11446822	     -6.51154537	   -126.98086520	     22.55461028	    -14.97335506	     25.72925092	    -67.02736543	     -1.80608316	     -5.36932760	      9.50448367	      3.77232386	     -3.60175862	     84.95428726	    -32.10187751	     39.37320905	     63.72178233	     97.99042584	    -30.32805409	      0.88526968	     43.61353486	     78.30729521	    -27.86200315	     27.94480298	     72.98558291	    129.68581065	    -13.61898988	     15.84548942	     90.00021046
      2.00000000	     -3.30530787	     14.67254219	     94.21352691	     -0.02911601	      0.49266905	      0.44100506	     75.17583317	     -7.12099844	      1.64080000	   -130.90411091	     12.66940000	     -7.44746996	     24.94017004	     69.77928919	      1.99487668	     -6.69889960	   -127.41133894	     22.89611845	    -14.84442267	     25.88390366	    -67.10858497	     -1.79053112	     -5.36355469	      9.75066915	      3.66766784	     -3.61618491	     86.51325914	    -31.53153295	     39.81233729	     63.37951430	     98.04330425	    -30.37115165	      0.74469942	     43.42537461	     80.01486913	    -27.49162299	     28.91354444	     73.00386488	    129.72150271	    -13.59010377	     15.84816406	     90.00021046
      2.00250000	     -3.31962466	     14.48091041	     94.20606093	     -0.02934637	      0.48962559	      0.44022876	     75.72938326	     -7.27565128	      1.59530603	   -131.35385734	     12.75340398	     -7.55242774	     24.95759001	     70.20832923	      1.87124713	     -6.86096549	   -127.82580420	     23.21048951	    -14.72858342	     26.02548263	    -67.18459917	     -1.76201073	     -5.34942078	     10.00218306	      3.56396427	     -3.63034012	     88.00036428	    -30.95388497	     40.17425637	     63.04521357	     98.11195771	    -30.40710892	      0.62581146	     43.24524718	     81.68368083	    -27.09911597	     29.82354339	     73.01248411	    129.77607380	    -13.54659859	     15.86483891	     90.00021046
      2.00500000	     -3.32666938	     14.28229878	     94.19292803	     -0.02956493	      0.48668540	      0.43941934	     76.28679015	     -7.42653276	      1.54569449	   -131.79778949	     12.82265137	     -7.62649463	     24.97692097	     70.63969800	      1.75524700	     -7.00347582	   -128.22963582	     23.48953617	    -14.61441617	     26.16217841	    -67.25223481	     -1.73739646	     -5.32923245	     10.25788538	      3.46780598	     -3.64313538	     89.42989577	    -30.37850362	     40.48168775	     62.71803834	     98.18911561	    -30.43648959	      0.51559141	     43.06269078	     83.31718234	    -26.70381246	     30.70997833	     73.01013132	    129.84328007	    -13.49709504	     15.90010142	     90.00021046
      2.00750000	     -3.32448300	     14.08058036	     94.18970944	     -0.02976238	      0.48383797	      0.43866090	     76.83550492	     -7.56563054	      1.50425322	   -132.22002542	     12.88426334	     -7.67248504	     24.99919700	     71.08314422	      1.64189535	     -7.13566359	   -128.62285169	     23.72834709	    -14.51966735	     26.28716085	    -67.31246782	     -1.70182108	     -5.29297503	     10.51793779	      3.38059259	     -3.65550599	     90.78321999	    -29.79867054	     40.69622269	     62.40432297	     98.26535900	    -30.45435027	      0.42122660	     42.88461480	     84.89904341	    -26.27628444	     31.52045200	     73.00144751	    129.92690379	    -13.45273290	     15.93738643	     90.00021046
      2.01000000	     -3.31836082	     13.88171212	     94.18001417	     -0.02994005	      0.48126407	      0.43792984	     77.35010506	     -7.68387683	      1.45656265	   -132.60385957	     12.95509491	     -7.69017361	     25.02102476	     71.50161195	      1.55798188	     -7.23469029	   -128.96719562	     23.91208636	    -14.49283010	     26.35921650	    -67.39714522	     -1.66813249	     -5.25406900	     10.85836184	      3.28892326	     -3.65559842	     92.02387729	    -29.14993577	     40.66707156	     62.10505479	     98.31741886	    -30.47917844	      0.38602640	     42.75594165	     86.34112104	    -25.69487570	     31.95603698	     72.90076591	    130.02736751	    -13.43964064	     15.93206935	     90.00021046
      2.01250000	     -3.29340422	     13.64202418	     94.18314458	     -0.03019135	      0.47844123	      0.43707794	     77.93834588	     -7.84242208	      1.42679028	   -133.01754722	     12.98499948	     -7.69105381	     25.05078063	     72.00999595	      1.42973802	     -7.36555478	   -129.38109844	     24.08118054	    -14.39059732	     26.47856585	    -67.39599826	     -1.62042527	     -5.18642550	     11.03407192	      3.23832626	     -3.70595577	     93.31114527	    -28.65882823	     40.92050001	     61.82049327	     98.44504067	    -30.43069733	      0.28441262	     42.57166939	     87.93431909	    -25.37612171	     33.01479016	     72.93960799	    130.19057803	    -13.35143453	     15.92568547	     90.00021046
      2.01500000	     -3.28386160	     13.40345257	     94.18210607	     -0.03035554	      0.47585962	      0.43630916	     78.50853390	     -7.98898882	      1.39473781	   -133.40038794	     13.01558123	     -7.68048982	     25.08867755	     72.50294485	      1.32258057	     -7.46866512	   -129.74949652	     24.20278565	    -14.30224066	     26.60040554	    -67.42420791	     -1.59164318	     -5.13264342	     11.29620789	      3.20374832	     -3.74235946	     94.49616914	    -28.09943144	     40.96003004	     61.54953375	     98.52113189	    -30.43610003	      0.18442507	     42.34689669	     89.42515569	    -24.92399644	     33.76003252	     72.88955166	    130.29272088	    -13.35410313	     15.94952953	     90.00021046
